# xmcd
# 
# Track frame offsets:
#     150
#     21875
#     45654
#     64699
#     87512
#     103782
#     119707
#     135970
#     154446
#     175102
# 
# Disc length: 2603
# 
# Revision: 0
# Processed by: cddbd v1.5.2PL0 Copyright (c) Steve Scherf et al.
# Submitted via: fre:ac v1.0.31
# 
DISCID=860a290a
DTITLE=Quiet Riot - The 80's: Quiet Riot
DYEAR=2013
DGENRE=Metal
TTITLE0=Cum On Feel The Noize
TTITLE1=Bang Your Head (Metal Health)
TTITLE2=Slick Black Cadillac
TTITLE3=Sign Of The Times
TTITLE4=The Wild and The Young
TTITLE5=Party All Night
TTITLE6=Mama We're All Crazy Now
TTITLE7=Put Up Or Shut Up
TTITLE8=Twilight Hotel
TTITLE9=Stay With Me Tonight
EXTD=
EXTT0=
EXTT1=
EXTT2=
EXTT3=
EXTT4=
EXTT5=
EXTT6=
EXTT7=
EXTT8=
EXTT9=
PLAYORDER=
